<svg fill="none" height="70" viewBox="0 0 70 70" width="70" xmlns="http://www.w3.org/2000/svg" xmlns:xlink="http://www.w3.org/1999/xlink"><linearGradient id="a" gradientUnits="userSpaceOnUse" x1="6.74978" x2="41.3527" y1="6.26741" y2="40.5251"><stop offset="0" stop-color="#387eb8"/><stop offset="1" stop-color="#366994"/></linearGradient><linearGradient id="b" gradientUnits="userSpaceOnUse" x1="27.989" x2="65.1485" y1="28.2656" y2="63.3937"><stop offset="0" stop-color="#ffe052"/><stop offset="1" stop-color="#ffc331"/></linearGradient><clipPath id="c"><path d="m0 0h70v69.72h-70z"/></clipPath><g clip-path="url(#c)"><path d="m34.7004.0197754c-17.7259 0-16.6191 7.6869746-16.6191 7.6869746l.0197 7.96395h16.9154v2.391h-23.634s-11.3427271-1.2864-11.3427271 16.5988c0 17.8858 9.9002371 17.2515 9.9002371 17.2515h5.90839v-8.2997s-.3185-9.9003 9.7422-9.9003h16.7771s9.4259.1523 9.4259-9.1098v-15.31431s1.4316-9.2681146-17.0931-9.2681146zm-9.3272 5.3555846c.3997-.00036.7956.07811 1.1649.23091.3694.1528.705.37694.9877.65959.2826.28264.5067.61825.6596.98762.1528.36936.2312.76523.2309 1.16496.0003.39972-.0781.79559-.2309 1.16496-.1529.36936-.377.705-.6596.9876-.2827.2827-.6183.5068-.9877.6596-.3693.1528-.7652.2313-1.1649.2309-.3997.0004-.7956-.0781-1.165-.2309-.3693-.1528-.7049-.3769-.9876-.6596-.2826-.2826-.5068-.61824-.6596-.9876-.1528-.36937-.2312-.76524-.2309-1.16496-.0003-.39973.0781-.7956.2309-1.16496.1528-.36937.377-.70498.6596-.98762.2827-.28265.6183-.50679.9876-.65959.3694-.1528.7653-.23127 1.165-.23091z" fill="url(#a)"/><path d="m35.2037 69.4811c17.7258 0 16.619-7.6869 16.619-7.6869l-.0197-7.9637h-16.9157v-2.391h23.634s11.3428 1.2864 11.3428-16.5993c0-17.8856-9.9003-17.2512-9.9003-17.2512h-5.9084v8.2994s.3185 9.9002-9.7422 9.9002h-16.7771s-9.4259-.1523-9.4259 9.1101v15.3146s-1.4313 9.2678 17.0932 9.2678zm9.3271-5.355c-.3997.0004-.7956-.0781-1.1649-.2309-.3694-.1528-.705-.3769-.9876-.6596-.2827-.2826-.5068-.6182-.6596-.9876s-.2313-.7652-.2309-1.165c-.0004-.3997.078-.7956.2308-1.165s.3769-.7051.6596-.9877c.2826-.2827.6182-.5069.9876-.6597s.7653-.2313 1.165-.2309c.3998-.0004.7956.0781 1.165.2309s.705.3769.9876.6596c.2827.2826.5068.6182.6596.9876s.2313.7652.2309 1.165c.0004.3997-.0781.7955-.2309 1.1649s-.3769.705-.6596.9876c-.2826.2827-.6182.5068-.9876.6596s-.7652.2313-1.165.2309z" fill="url(#b)"/></g></svg>